<svg width="16" height="10" viewBox="0 0 16 10" fill="none" xmlns="http://www.w3.org/2000/svg">
<path fill-rule="evenodd" clip-rule="evenodd" d="M9.0599 0.940111C8.77865 0.65921 8.3974 0.501431 7.9999 0.501431C7.6024 0.501431 7.22115 0.65921 6.9399 0.940111L1.2819 6.59611C1.00064 6.87751 0.84268 7.25911 0.842773 7.65696C0.842867 8.05482 1.00101 8.43635 1.2824 8.71761C1.56379 8.99887 1.9454 9.15683 2.34325 9.15674C2.74111 9.15664 3.12264 8.99851 3.4039 8.71711L7.9999 4.12111L12.5959 8.71711C12.8787 8.99048 13.2575 9.14186 13.6508 9.13863C14.0441 9.1354 14.4204 8.97782 14.6986 8.69984C14.9769 8.42185 15.1348 8.04571 15.1384 7.65241C15.142 7.25912 14.991 6.88014 14.7179 6.59711L9.0609 0.93911L9.0599 0.940111Z" fill="black"/>
</svg>
