<svg width="16" height="10" viewBox="0 0 16 10" fill="none" xmlns="http://www.w3.org/2000/svg">
<path d="M7.5625 9.0204L7.682 9.1169C6.87214 9.65791 5.91944 9.9453 4.9455 9.9424C2.2135 9.9424 0 7.7319 0 4.9999C0 2.2704 2.2135 0.0573977 4.9425 0.0573977C5.956 0.0573977 6.8985 0.359398 7.68 0.879898C7.64165 0.912042 7.60494 0.946085 7.57 0.981898C6.4015 1.9919 5.7295 3.4584 5.7295 4.9999C5.7295 6.5414 6.399 8.0079 7.563 9.0204H7.5625ZM11.0575 0.0573977C10.0837 0.0543116 9.13087 0.340587 8.32 0.879898C8.3595 0.913898 8.3985 0.947898 8.43 0.981898C9.00706 1.4804 9.4701 2.09724 9.78767 2.79053C10.1052 3.48382 10.2699 4.23733 10.2705 4.9999C10.2705 6.5394 9.601 8.0054 8.437 9.0204L8.3175 9.1169C9.12736 9.65791 10.0801 9.9453 11.054 9.9424C13.786 9.9424 15.9995 7.7319 15.9995 4.9999C15.9995 2.2704 13.7865 0.0573977 11.0575 0.0573977ZM8 1.1174C7.41133 1.57898 6.93541 2.16847 6.60831 2.84122C6.2812 3.51397 6.11148 4.25234 6.112 5.0004C6.1111 5.74888 6.28064 6.48774 6.60776 7.16095C6.93488 7.83416 7.411 8.42406 8 8.8859C8.0655 8.8364 8.1255 8.7844 8.1875 8.7299C8.72187 8.2666 9.1503 7.69376 9.44372 7.05025C9.73713 6.40674 9.88865 5.70764 9.888 5.0004C9.88852 4.25234 9.7188 3.51397 9.39169 2.84122C9.06459 2.16847 8.58867 1.57898 8 1.1174Z" fill="black"/>
</svg>
