<svg width="13" height="14" viewBox="0 0 13 14" fill="none" xmlns="http://www.w3.org/2000/svg">
<path fill-rule="evenodd" clip-rule="evenodd" d="M6.24607 13.7129C5.73442 13.4113 5.2325 13.0935 4.74107 12.7599C4.23974 12.4199 3.7584 12.0532 3.29707 11.6599C2.83907 11.2646 2.40974 10.8399 2.00907 10.3859C1.60907 9.93091 1.25607 9.43591 0.95907 8.90791C0.66026 8.37399 0.425311 7.80675 0.25907 7.21791C0.0843429 6.59366 -0.00282343 5.94816 6.97168e-05 5.29991V2.09991L0.50007 1.59991C0.833403 1.59991 1.15674 1.58791 1.47007 1.56391C1.76674 1.54058 2.06074 1.49791 2.35207 1.43591C2.63607 1.37325 2.9134 1.28791 3.18407 1.17991C3.46874 1.06191 3.74074 0.919581 4.00007 0.752914C4.36702 0.51128 4.7654 0.321172 5.18407 0.187914C5.83331 0.000317365 6.51484 -0.0480715 7.18407 0.045914C7.61447 0.105547 8.03227 0.234909 8.42107 0.428914C8.61974 0.525581 8.81307 0.632914 9.00107 0.750914C9.26174 0.917581 9.5354 1.06025 9.82207 1.17891C10.0921 1.28758 10.3691 1.37291 10.6531 1.43491C10.9451 1.49758 11.2397 1.54058 11.5371 1.56391C11.8484 1.58725 12.1707 1.59891 12.5041 1.59891L13.0041 2.09891V5.29891C13.008 5.94735 12.9219 6.59319 12.7481 7.21791C12.5818 7.80675 12.3469 8.37399 12.0481 8.90791C11.7499 9.43542 11.398 9.93071 10.9981 10.3859C10.5981 10.8392 10.1694 11.2626 9.71207 11.6559C9.25065 12.0497 8.7672 12.417 8.26407 12.7559C7.77068 13.09 7.2671 13.4088 6.75407 13.7119H6.24607V13.7129ZM1.00007 2.58991V5.29991C0.99607 5.85491 1.07007 6.40991 1.22007 6.94491C1.36405 7.45844 1.56883 7.95294 1.83007 8.41791C2.09407 8.88591 2.40407 9.32191 2.76007 9.72591C3.13007 10.1439 3.52607 10.5352 3.94807 10.8999C4.38007 11.2686 4.83074 11.6119 5.30007 11.9299C5.70007 12.1966 6.10007 12.4529 6.50007 12.6989C6.90007 12.4569 7.30007 12.2009 7.70007 11.9309C8.17074 11.6116 8.6224 11.2679 9.05507 10.8999C9.4764 10.5352 9.87174 10.1446 10.2411 9.72791C10.5952 9.32505 10.9069 8.88673 11.1711 8.41991C11.4321 7.95491 11.6371 7.45991 11.7811 6.94691C11.9311 6.40991 12.0041 5.85691 12.0011 5.29991V2.58991C11.8421 2.58991 11.6881 2.57791 11.5361 2.56691L11.4571 2.56091C11.1149 2.5338 10.7749 2.4847 10.4391 2.41391C9.73763 2.26097 9.0687 1.98541 8.46307 1.59991C8.3075 1.5011 8.14659 1.41096 7.98107 1.32991C7.68423 1.18353 7.36587 1.08562 7.03807 1.03991C6.51711 0.964003 5.98595 1.00014 5.48007 1.14591C5.14807 1.25391 4.83107 1.40591 4.54007 1.59791C4.22807 1.79791 3.9004 1.96891 3.55707 2.11091C3.23267 2.24036 2.89822 2.34304 2.55707 2.41791C2.22174 2.48858 1.88274 2.53725 1.54007 2.56391C1.3654 2.57458 1.1854 2.58325 1.00007 2.58991ZM7.06507 6.88991C7.38732 6.75888 7.65401 6.51992 7.81949 6.21393C7.98497 5.90794 8.03895 5.55395 7.97219 5.21254C7.90544 4.87114 7.72209 4.56355 7.45354 4.34242C7.185 4.1213 6.84794 4.00039 6.50007 4.00039C6.1522 4.00039 5.81514 4.1213 5.5466 4.34242C5.27805 4.56355 5.0947 4.87114 5.02795 5.21254C4.96119 5.55395 5.01517 5.90794 5.18065 6.21393C5.34613 6.51992 5.61282 6.75888 5.93507 6.88991L5.50007 9.49991H7.50007L7.06507 6.88991Z" fill="black"/>
</svg>
