<svg width="24" height="8" viewBox="0 0 24 8" fill="none" xmlns="http://www.w3.org/2000/svg">
<path d="M22.222 7.76812L21.997 6.64312H19.483L19.083 7.76012L17.068 7.76412C18.3633 4.65145 19.3247 2.34578 19.952 0.847117C20.116 0.455117 20.407 0.255118 20.836 0.258118C21.164 0.260784 21.6993 0.261117 22.442 0.259117L24 7.76512L22.222 7.76812ZM20.048 5.10212H21.669L21.064 2.28212L20.048 5.10212ZM7.062 0.257117L9.088 0.259117L5.956 7.76912L3.905 7.76712C3.38925 5.78344 2.87991 3.79809 2.377 1.81112C2.277 1.41512 2.079 1.13812 1.698 1.00712C1.35733 0.890451 0.791333 0.710117 0 0.466117V0.259117H3.237C3.797 0.259117 4.124 0.530118 4.229 1.08612C4.335 1.64345 4.60167 3.06145 5.029 5.34012L7.062 0.257117ZM11.872 0.259117L10.271 7.76812L8.342 7.76512L9.94 0.257117L11.872 0.259117ZM15.782 0.120117C16.359 0.120117 17.086 0.300117 17.504 0.466117L17.166 2.02212C16.788 1.87012 16.166 1.66512 15.643 1.67212C14.883 1.68512 14.413 2.00412 14.413 2.31012C14.413 2.80812 15.229 3.05912 16.069 3.60312C17.027 4.22312 17.154 4.78012 17.142 5.38612C17.129 6.64112 16.069 7.88012 13.833 7.88012C12.813 7.86512 12.445 7.78012 11.613 7.48412L11.965 5.86012C12.812 6.21412 13.171 6.32712 13.895 6.32712C14.558 6.32712 15.127 6.05912 15.132 5.59212C15.136 5.26012 14.932 5.09512 14.188 4.68512C13.444 4.27512 12.4 3.70612 12.414 2.56312C12.431 1.10112 13.816 0.120117 15.782 0.120117Z" fill="black"/>
</svg>
